<?xml version="1.0" standalone="no"?>
<!DOCTYPE svg PUBLIC "-//W3C//DTD SVG 20010904//EN"
 "http://www.w3.org/TR/2001/REC-SVG-20010904/DTD/svg10.dtd">
<svg version="1.0" xmlns="http://www.w3.org/2000/svg"
 width="260.000000pt" height="260.000000pt" viewBox="0 0 260.000000 260.000000"
 preserveAspectRatio="xMidYMid meet">
<metadata>
Created by potrace 1.14, written by Peter Selinger 2001-2017
</metadata>
<g transform="translate(0.000000,260.000000) scale(0.100000,-0.100000)"
fill="#000000" stroke="none">
<path d="M1090 2586 c-136 -24 -233 -56 -355 -115 -362 -177 -606 -483 -706
-885 -41 -164 -36 -432 11 -614 15 -61 16 -79 6 -129 -7 -32 -10 -65 -8 -74 3
-17 30 -29 67 -29 14 0 30 -19 55 -67 108 -209 320 -415 546 -530 186 -95 329
-132 535 -140 241 -9 422 28 624 126 261 128 464 326 592 577 95 186 132 329
140 535 9 241 -28 422 -126 624 -177 362 -481 604 -885 706 -104 27 -383 35
-496 15z m135 -810 c298 -79 403 -424 217 -712 -78 -120 -223 -222 -367 -259
-83 -21 -219 -19 -294 4 -162 50 -269 172 -289 327 l-7 59 -70 0 -69 0 -39
-197 -40 -198 -108 0 c-120 0 -115 -3 -97 70 6 25 50 239 97 475 l87 430 107
3 c59 1 107 -1 107 -6 0 -5 -16 -87 -35 -182 -19 -95 -35 -179 -35 -187 0 -9
16 -13 58 -13 l59 0 37 75 c69 140 218 259 381 306 74 21 230 24 300 5z m1265
-28 c-5 -18 -14 -59 -20 -90 l-11 -58 -235 0 c-129 0 -234 -1 -234 -2 -1 -2
-36 -181 -78 -398 l-78 -395 -107 -3 c-59 -1 -107 1 -107 5 0 4 43 225 96 491
l97 482 343 0 342 0 -8 -32z"/>
<path d="M1017 1599 c-200 -31 -345 -249 -297 -447 15 -66 74 -134 135 -157
63 -24 174 -17 240 15 70 34 140 108 178 188 28 59 32 77 32 152 0 76 -3 90
-31 139 -50 89 -142 128 -257 110z"/>
</g>
</svg>
