<svg width="260" height="260" viewBox="0 0 260 260" fill="none" xmlns="http://www.w3.org/2000/svg">
<g clip-path="url(#clip0_1_3)">
<rect width="260" height="260" fill="white"/>
<circle cx="130" cy="130" r="130" fill="#FBDC4D"/>
<g filter="url(#filter0_d_1_3)">
<path d="M4.76 180L24.36 82H46.76L38.92 120.5H64.26L60.48 140.1H35.14L27.16 180H4.76ZM93.1 181.68C84.14 181.68 76.2533 179.86 69.44 176.22C62.72 172.58 57.4467 167.54 53.62 161.1C49.8867 154.567 48.02 147.007 48.02 138.42C48.02 130.487 49.6067 123.02 52.78 116.02C55.9533 109.02 60.34 102.86 65.94 97.54C71.6333 92.22 78.12 88.02 85.4 84.94C92.68 81.86 100.473 80.32 108.78 80.32C117.74 80.32 125.58 82.14 132.3 85.78C139.113 89.42 144.387 94.5067 148.12 101.04C151.947 107.48 153.86 114.993 153.86 123.58C153.86 131.513 152.273 138.98 149.1 145.98C145.927 152.98 141.493 159.14 135.8 164.46C130.2 169.78 123.713 173.98 116.34 177.06C109.06 180.14 101.313 181.68 93.1 181.68ZM95.06 162.08C99.82 162.08 104.347 161.1 108.64 159.14C112.933 157.18 116.713 154.473 119.98 151.02C123.247 147.473 125.813 143.46 127.68 138.98C129.64 134.5 130.62 129.787 130.62 124.84C130.62 119.8 129.64 115.413 127.68 111.68C125.72 107.947 122.967 105.053 119.42 103C115.873 100.947 111.673 99.92 106.82 99.92C102.06 99.92 97.4867 100.9 93.1 102.86C88.8067 104.82 85.0267 107.573 81.76 111.12C78.5867 114.573 76.02 118.54 74.06 123.02C72.1933 127.5 71.26 132.213 71.26 137.16C71.26 142.2 72.24 146.587 74.2 150.32C76.16 154.053 78.9133 156.947 82.46 159C86.0067 161.053 90.2067 162.08 95.06 162.08ZM161.303 180L180.903 82H249.923L246.143 100.48H194.063L200.223 95.3L183.703 180H161.303Z" fill="white"/>
</g>
</g>
<defs>
<filter id="filter0_d_1_3" x="0.760002" y="80.3199" width="253.163" height="109.36" filterUnits="userSpaceOnUse" color-interpolation-filters="sRGB">
<feFlood flood-opacity="0" result="BackgroundImageFix"/>
<feColorMatrix in="SourceAlpha" type="matrix" values="0 0 0 0 0 0 0 0 0 0 0 0 0 0 0 0 0 0 127 0" result="hardAlpha"/>
<feOffset dy="4"/>
<feGaussianBlur stdDeviation="2"/>
<feComposite in2="hardAlpha" operator="out"/>
<feColorMatrix type="matrix" values="0 0 0 0 0 0 0 0 0 0 0 0 0 0 0 0 0 0 0.25 0"/>
<feBlend mode="normal" in2="BackgroundImageFix" result="effect1_dropShadow_1_3"/>
<feBlend mode="normal" in="SourceGraphic" in2="effect1_dropShadow_1_3" result="shape"/>
</filter>
<clipPath id="clip0_1_3">
<rect width="260" height="260" fill="white"/>
</clipPath>
</defs>
</svg>
