<svg style="width=0; height=0; visibility: hidden;" xmlns="http://www.w3.org/2000/svg">

    <!-- ln -->
    <symbol id="svg-ln" viewBox="0 0 32 32">
        <g>
        <path d="M7.44897 10.2947H1.02492C0.739808 10.2947 0.508789 10.5258 0.508789 10.8108V31.4485C0.508789 31.7336 0.739808 31.9647 1.02492 31.9647H7.44897C7.73408 31.9647 7.9651 31.7336 7.9651 31.4485V10.8108C7.9651 10.5258 7.73408 10.2947 7.44897 10.2947Z"/>
        <path d="M4.23907 0.0351868C1.90163 0.0351868 0 1.93475 0 4.26961C0 6.60551 1.90163 8.50579 4.23907 8.50579C6.57466 8.50579 8.47474 6.60541 8.47474 4.26961C8.47484 1.93475 6.57466 0.0351868 4.23907 0.0351868Z"/>
        <path d="M23.789 9.78177C21.2088 9.78177 19.3015 10.8909 18.1447 12.1512V10.8108C18.1447 10.5258 17.9137 10.2947 17.6286 10.2947H11.4764C11.1913 10.2947 10.9603 10.5258 10.9603 10.8108V31.4486C10.9603 31.7337 11.1913 31.9647 11.4764 31.9647H17.8864C18.1715 31.9647 18.4025 31.7337 18.4025 31.4486V21.2377C18.4025 17.7968 19.3371 16.4564 21.7357 16.4564C24.3479 16.4564 24.5555 18.6053 24.5555 21.4147V31.4487C24.5555 31.7338 24.7865 31.9648 25.0717 31.9648H31.484C31.7692 31.9648 32.0002 31.7338 32.0002 31.4487V20.1285C32.0002 15.0121 31.0246 9.78177 23.789 9.78177Z" />
        </g>
    </symbol>

    <!-- git -->
    <symbol id="svg-git" viewBox="0 0 42 42">
        <g>
        <path d="M21 0.875C9.3975 0.875 0 10.115 0 21.511C0 30.6303 6.0165 38.3635 14.3587 41.09C15.4087 41.2843 15.7937 40.6455 15.7937 40.0978C15.7937 39.6078 15.7763 38.3093 15.7675 36.589C9.926 37.8333 8.694 33.8205 8.694 33.8205C7.7385 31.4388 6.35775 30.8018 6.35775 30.8018C4.4555 29.5225 6.50475 29.5488 6.50475 29.5488C8.6135 29.6923 9.72125 31.675 9.72125 31.675C11.5937 34.8303 14.637 33.9185 15.8375 33.3918C16.0265 32.0565 16.5673 31.1483 17.1675 30.632C12.5038 30.1158 7.602 28.3413 7.602 20.4348C7.602 18.1825 8.41575 16.3415 9.76325 14.8978C9.527 14.3763 8.81825 12.278 9.947 9.436C9.947 9.436 11.7058 8.883 15.722 11.5518C17.402 11.0933 19.187 10.8658 20.972 10.8553C22.757 10.8658 24.542 11.0933 26.222 11.5518C30.212 8.883 31.9707 9.436 31.9707 9.436C33.0995 12.278 32.3907 14.3763 32.1807 14.8978C33.5195 16.3415 34.3332 18.1825 34.3332 20.4348C34.3332 28.3623 29.4245 30.107 24.752 30.6145C25.487 31.234 26.1695 32.4993 26.1695 34.433C26.1695 37.1945 26.1433 39.4135 26.1433 40.0838C26.1433 40.6245 26.5107 41.2703 27.587 41.0638C35.9888 38.3548 42 30.6163 42 21.511C42 10.115 32.5972 0.875 21 0.875V0.875Z" />
        </g>
    </symbol>

    <!-- fb -->
    <symbol id="svg-fb" viewBox="0 0 48 48">
        <g>
       <path d="M23.9999 0C37.2555 0 48 10.746 48 24.0001C48 37.2557 37.2555 48 23.9999 48C10.7443 48 0 37.2555 0 24.0001C0 10.746 10.7445 0 23.9999 0Z" fill="#3B5998"/>
        <path d="M26.9219 16.5224H30.0149V11.9534H26.379V11.9699C21.9734 12.1259 21.0705 14.6024 20.9909 17.2034H20.9819V19.485H17.9819V23.9594H20.9819V35.9533H25.5029V23.9594H29.2064L29.9218 19.485H25.5044V18.1065C25.5044 17.2275 26.0893 16.5224 26.9219 16.5224Z" fill="white"/>
        </g>
    </symbol>

    <!-- tg -->
    <symbol id="svg-tg" viewBox="0 0 48 48">
        <g>
       <path d="M24 48C37.2548 48 48 37.2548 48 24C48 10.7452 37.2548 0 24 0C10.7452 0 0 10.7452 0 24C0 37.2548 10.7452 48 24 48Z" fill="#039BE5"/>
        <path d="M10.9818 23.48L34.1218 14.558C35.1958 14.17 36.1338 14.82 35.7858 16.444L35.7878 16.442L31.8478 35.004C31.5558 36.32 30.7738 36.64 29.6798 36.02L23.6798 31.598L20.7858 34.386C20.4658 34.706 20.1958 34.976 19.5758 34.976L20.0018 28.87L31.1218 18.824C31.6058 18.398 31.0138 18.158 30.3758 18.582L16.6338 27.234L10.7098 25.386C9.42379 24.978 9.39579 24.1 10.9818 23.48V23.48Z" fill="white"/>
        </g>
    </symbol>

    <!-- vk -->
    <symbol id="svg-vk" viewBox="0 0 48 48">
        <g>
      <path d="M24 48C37.2548 48 48 37.2548 48 24C48 10.7452 37.2548 0 24 0C10.7452 0 0 10.7452 0 24C0 37.2548 10.7452 48 24 48Z" fill="#4D76A1"/>
        <path fill-rule="evenodd" clip-rule="evenodd" d="M23.0935 34.5261H24.9772C24.9772 34.5261 25.5462 34.4637 25.8367 34.1505C26.1041 33.863 26.0955 33.3231 26.0955 33.3231C26.0955 33.3231 26.0587 30.7955 27.2318 30.4233C28.3882 30.0567 29.8732 32.8662 31.4472 33.9464C32.6374 34.764 33.5418 34.5847 33.5418 34.5847L37.7503 34.5261C37.7503 34.5261 39.9519 34.3905 38.908 32.6595C38.8224 32.5179 38.3 31.3791 35.7789 29.0389C33.1401 26.5896 33.4934 26.9858 36.6722 22.749C38.6081 20.1688 39.382 18.5936 39.1403 17.9189C38.9097 17.2763 37.4859 17.4462 37.4859 17.4462L32.7473 17.4757C32.7473 17.4757 32.3961 17.4278 32.1355 17.5835C31.881 17.7362 31.7171 18.0922 31.7171 18.0922C31.7171 18.0922 30.9671 20.0888 29.9669 21.7869C27.8569 25.3699 27.0132 25.559 26.6684 25.3365C25.8662 24.818 26.0664 23.2534 26.0664 22.142C26.0664 18.6697 26.5931 17.222 25.0409 16.8472C24.5258 16.7227 24.1468 16.6406 22.8295 16.6273C21.1388 16.6098 19.7077 16.6324 18.8974 17.0295C18.3584 17.2934 17.9425 17.8817 18.1958 17.9155C18.5089 17.9574 19.2183 18.1067 19.5943 18.6188C20.0799 19.2794 20.0628 20.7631 20.0628 20.7631C20.0628 20.7631 20.3417 24.8505 19.4112 25.3583C18.7725 25.7066 17.8963 24.9955 16.0152 21.7449C15.0513 20.0798 14.3236 18.2394 14.3236 18.2394C14.3236 18.2394 14.1832 17.8954 13.933 17.7114C13.6292 17.4885 13.2048 17.4175 13.2048 17.4175L8.70196 17.447C8.70196 17.447 8.026 17.4658 7.77787 17.7598C7.55711 18.0212 7.76032 18.5619 7.76032 18.5619C7.76032 18.5619 11.2856 26.8095 15.2772 30.9658C18.9372 34.7764 23.0935 34.5261 23.0935 34.5261Z" fill="white"/>
        </g>
    </symbol>

    <!-- wa -->
    <symbol id="svg-wa" viewBox="0 0 48 48">
        <g>
        <path d="M23.987 0.0126458C10.74 0.0154567 0.00339595 10.7566 0.00620679 24.0036C0.00714373 28.5906 1.32346 33.0811 3.79887 36.9428L0.0671082 46.6251C-0.131618 47.1401 0.12473 47.7186 0.639676 47.9174C0.754826 47.9618 0.877098 47.9845 1.00049 47.9844C1.11499 47.9849 1.22864 47.9653 1.33629 47.9264L11.3304 44.3585C22.5749 51.3617 37.3676 47.9234 44.3707 36.6788C51.3738 25.4342 47.9356 10.6416 36.691 3.63853C32.8793 1.2645 28.4776 0.00824217 23.987 0.0126458Z" fill="#55CD6C"/>
        <path d="M35.4222 28.098C35.4222 28.098 32.9737 26.8987 31.4406 26.0992C29.7056 25.2057 27.6668 26.8787 26.7074 27.8302C25.2142 27.2566 23.8504 26.3909 22.6958 25.2837C21.5884 24.1293 20.7226 22.7654 20.1492 21.272C21.1007 20.3106 22.7697 18.2738 21.8802 16.5389C21.0907 15.0038 19.8815 12.5572 19.8815 12.5553C19.7118 12.2185 19.3671 12.0059 18.99 12.0056H16.9912C14.0803 12.5083 11.9638 15.0482 11.9942 18.002C11.9942 21.1401 15.7499 27.1686 18.2825 29.7031C20.815 32.2375 26.8434 35.9914 29.9835 35.9914C32.9373 36.0217 35.4772 33.9052 35.98 30.9944V28.9956C35.9802 28.6144 35.764 28.2663 35.4222 28.098Z" fill="#FAFAFA"/>
        </g>
    </symbol>
</svg>